<?xml version="1.0" encoding="UTF-8"?>
<svg version="1.1" xmlns="http://www.w3.org/2000/svg" width="512" height="512">
<path d="M0 0 C1.45089842 -0.00645814 2.90179566 -0.01318848 4.35269165 -0.02017212 C7.37985233 -0.03205651 10.40689973 -0.03586264 13.43408203 -0.03466797 C16.48640863 -0.03450626 19.53812965 -0.04827352 22.59033203 -0.07568359 C85.88636123 -0.63534637 144.56683359 22.40109233 191.359375 65.2578125 C193.27159332 66.98205004 195.21929013 68.60141956 197.2265625 70.2109375 C201.18466452 73.55146331 204.26351527 77.59336386 207.453125 81.65234375 C209.7157189 84.39863705 212.14634672 86.82182876 214.6640625 89.3359375 C220.11156468 95.16066271 224.99222827 101.22477033 229.5390625 107.7734375 C230.14274658 108.64250732 230.74643066 109.51157715 231.3684082 110.40698242 C237.07765568 118.74986763 242.0704436 127.336563 246.6640625 136.3359375 C247.33864502 137.64836426 247.33864502 137.64836426 248.02685547 138.98730469 C266.30366335 174.88479755 275.45173365 212.19705337 275.18554688 252.48339844 C275.16407708 256.33332253 275.18549999 260.1813813 275.2109375 264.03125 C275.27750672 322.77437188 252.29938657 382.64792181 212.6640625 426.3359375 C210.6640625 428.00260417 208.6640625 429.66927083 206.6640625 431.3359375 C205.2237585 433.06653533 203.80985092 434.81924026 202.4140625 436.5859375 C197.9449629 442.14632887 193.13084524 446.76894334 187.6640625 451.3359375 C187.14666504 451.77486328 186.62926758 452.21378906 186.09619141 452.66601562 C170.0269348 466.2387563 152.33318242 477.68163018 133.6640625 487.3359375 C132.94138184 487.71556641 132.21870117 488.09519531 131.47412109 488.48632812 C102.28674891 503.66505457 68.84315817 512.66055065 35.90234375 512.63671875 C34.53679785 512.64062757 33.17125312 512.6449665 31.80570984 512.64970398 C28.96621738 512.657087 26.1268494 512.65693444 23.28735352 512.65161133 C20.42228467 512.64698698 17.55764099 512.65388314 14.69262695 512.67211914 C-1.51224386 512.77424504 -17.3986785 512.63567425 -33.3359375 509.3359375 C-34.47506592 509.10624268 -35.61419434 508.87654785 -36.7878418 508.63989258 C-39.65698949 508.01550537 -42.49469678 507.32620167 -45.3359375 506.5859375 C-46.33955322 506.32699707 -47.34316895 506.06805664 -48.37719727 505.80126953 C-87.81484256 495.36730407 -123.98613098 474.93202198 -154.03125 447.4140625 C-155.94346832 445.68982496 -157.89116513 444.07045544 -159.8984375 442.4609375 C-163.85653952 439.12041169 -166.93539027 435.07851114 -170.125 431.01953125 C-172.3875939 428.27323795 -174.81822172 425.85004624 -177.3359375 423.3359375 C-182.78343968 417.51121229 -187.66410327 411.44710467 -192.2109375 404.8984375 C-192.81462158 404.02936768 -193.41830566 403.16029785 -194.0402832 402.26489258 C-199.74953068 393.92200737 -204.7423186 385.335312 -209.3359375 376.3359375 C-210.01052002 375.02351074 -210.01052002 375.02351074 -210.69873047 373.68457031 C-228.97553835 337.78707745 -238.12360865 300.47482163 -237.85742188 260.18847656 C-237.83595208 256.33855247 -237.85737499 252.4904937 -237.8828125 248.640625 C-237.94938172 189.89750312 -214.97126157 130.02395319 -175.3359375 86.3359375 C-173.3359375 84.66927083 -171.3359375 83.00260417 -169.3359375 81.3359375 C-167.8956335 79.60533967 -166.48172592 77.85263474 -165.0859375 76.0859375 C-160.6168379 70.52554613 -155.80272024 65.90293166 -150.3359375 61.3359375 C-149.55984131 60.67754883 -149.55984131 60.67754883 -148.76806641 60.00585938 C-132.6988098 46.4331187 -115.00505742 34.99024482 -96.3359375 25.3359375 C-95.61325684 24.95630859 -94.89057617 24.57667969 -94.14599609 24.18554688 C-65.5288424 9.30335931 -32.31158751 0.03457707 0 0 Z " fill="#FEFEFE" transform="translate(237.3359375,-0.3359375)"/>
<path d="M0 0 C2.82465004 1.44160031 2.82465004 1.44160031 5.265625 0.98828125 C6.131875 0.61703125 6.131875 0.61703125 7.015625 0.23828125 C15.1139684 -2.46116655 22.41404447 -0.79282566 29.9765625 2.6953125 C39.58887665 7.57560053 47.91948977 13.10967867 56.015625 20.23828125 C56.52738281 20.6883252 57.03914063 21.13836914 57.56640625 21.60205078 C88.63233129 49.10597651 123.08921212 93.58275507 128.015625 136.23828125 C128.97086413 153.54365989 125.23727177 170.71405838 113.58203125 184.015625 C106.18501287 191.67643007 106.18501287 191.67643007 101.015625 193.23828125 C100.025625 193.23828125 99.035625 193.23828125 98.015625 193.23828125 C98.015625 193.89828125 98.015625 194.55828125 98.015625 195.23828125 C94.33365934 196.06931125 90.82847045 196.41935859 87.05859375 196.5546875 C85.39086914 196.6175293 85.39086914 196.6175293 83.68945312 196.68164062 C82.53896484 196.72095703 81.38847656 196.76027344 80.203125 196.80078125 C79.03330078 196.84396484 77.86347656 196.88714844 76.65820312 196.93164062 C73.77745469 197.03746404 70.89662377 197.1395495 68.015625 197.23828125 C67.79648437 198.36363281 67.57734375 199.48898437 67.3515625 200.6484375 C60.73045233 233.25374256 43.66117031 258.29563479 16.77734375 277.55859375 C14.015625 279.23828125 14.015625 279.23828125 11.015625 279.23828125 C11.015625 279.89828125 11.015625 280.55828125 11.015625 281.23828125 C-5.69977719 291.11046509 -25.95980067 296.07474585 -44.984375 299.23828125 C-45.9849292 299.41343262 -46.9854834 299.58858398 -48.01635742 299.76904297 C-57.6803113 301.32588601 -67.1591537 301.64250908 -76.921875 301.61328125 C-78.14283371 301.6104715 -78.14283371 301.6104715 -79.38845825 301.60760498 C-119.3034015 301.40935599 -159.92173845 288.61574863 -188.54638672 259.75830078 C-196.9112359 250.91627175 -203.38548061 241.00045811 -208.984375 230.23828125 C-209.45488281 229.36171875 -209.92539063 228.48515625 -210.41015625 227.58203125 C-214.99386384 218.38623399 -218.984375 206.58626926 -218.984375 196.23828125 C-220.09510376 196.27755737 -220.09510376 196.27755737 -221.22827148 196.31762695 C-224.62591821 196.42240254 -228.02322387 196.4868625 -231.421875 196.55078125 C-233.16887695 196.61362305 -233.16887695 196.61362305 -234.95117188 196.67773438 C-242.65880367 196.78629257 -247.73165143 195.81588312 -253.984375 191.23828125 C-255.27214844 190.30435547 -255.27214844 190.30435547 -256.5859375 189.3515625 C-269.34684974 177.99484331 -277.23221341 162.19483855 -278.3046875 145.04296875 C-279.75189585 106.29228247 -252.82287402 68.270623 -227.59765625 40.984375 C-226.30408203 39.62505859 -226.30408203 39.62505859 -224.984375 38.23828125 C-224.43185059 37.65320801 -223.87932617 37.06813477 -223.31005859 36.46533203 C-188.74967884 0.09416763 -188.74967884 0.09416763 -169.3828125 -0.89453125 C-168.38507813 -0.89195313 -167.38734375 -0.889375 -166.359375 -0.88671875 C-165.37710938 -0.88929687 -164.39484375 -0.891875 -163.3828125 -0.89453125 C-159.984375 -0.76171875 -159.984375 -0.76171875 -157.88232422 -0.40283203 C-151.63899906 0.63569642 -147.92519736 -0.5437937 -142.359375 -3.38671875 C-140.78111196 -4.1380152 -139.20033518 -4.88405195 -137.6171875 -5.625 C-136.83762695 -5.99189941 -136.05806641 -6.35879883 -135.25488281 -6.73681641 C-125.31322066 -11.22446132 -114.68695464 -13.84840842 -103.984375 -15.76171875 C-102.86160156 -15.96796875 -101.73882812 -16.17421875 -100.58203125 -16.38671875 C-66.13481249 -21.86782317 -31.47045646 -14.02221738 0 0 Z " fill="#FDEEC3" transform="translate(329.984375,106.76171875)"/>
<path d="M0 0 C2.82465004 1.44160031 2.82465004 1.44160031 5.265625 0.98828125 C6.131875 0.61703125 6.131875 0.61703125 7.015625 0.23828125 C15.1139684 -2.46116655 22.41404447 -0.79282566 29.9765625 2.6953125 C39.58887665 7.57560053 47.91948977 13.10967867 56.015625 20.23828125 C56.52738281 20.6883252 57.03914063 21.13836914 57.56640625 21.60205078 C88.63233129 49.10597651 123.08921212 93.58275507 128.015625 136.23828125 C128.97086413 153.54365989 125.23727177 170.71405838 113.58203125 184.015625 C106.18501287 191.67643007 106.18501287 191.67643007 101.015625 193.23828125 C100.025625 193.23828125 99.035625 193.23828125 98.015625 193.23828125 C98.015625 193.89828125 98.015625 194.55828125 98.015625 195.23828125 C94.33365934 196.06931125 90.82847045 196.41935859 87.05859375 196.5546875 C85.39086914 196.6175293 85.39086914 196.6175293 83.68945312 196.68164062 C82.53896484 196.72095703 81.38847656 196.76027344 80.203125 196.80078125 C79.03330078 196.84396484 77.86347656 196.88714844 76.65820312 196.93164062 C73.77745469 197.03746404 70.89662377 197.1395495 68.015625 197.23828125 C67.79648437 198.36363281 67.57734375 199.48898437 67.3515625 200.6484375 C60.73045233 233.25374256 43.66117031 258.29563479 16.77734375 277.55859375 C14.015625 279.23828125 14.015625 279.23828125 11.015625 279.23828125 C11.015625 279.89828125 11.015625 280.55828125 11.015625 281.23828125 C-5.69977719 291.11046509 -25.95980067 296.07474585 -44.984375 299.23828125 C-45.9849292 299.41343262 -46.9854834 299.58858398 -48.01635742 299.76904297 C-57.6803113 301.32588601 -67.1591537 301.64250908 -76.921875 301.61328125 C-78.14283371 301.6104715 -78.14283371 301.6104715 -79.38845825 301.60760498 C-119.3034015 301.40935599 -159.92173845 288.61574863 -188.54638672 259.75830078 C-196.9112359 250.91627175 -203.38548061 241.00045811 -208.984375 230.23828125 C-209.45488281 229.36171875 -209.92539063 228.48515625 -210.41015625 227.58203125 C-214.99386384 218.38623399 -218.984375 206.58626926 -218.984375 196.23828125 C-220.09510376 196.27755737 -220.09510376 196.27755737 -221.22827148 196.31762695 C-224.62591821 196.42240254 -228.02322387 196.4868625 -231.421875 196.55078125 C-233.16887695 196.61362305 -233.16887695 196.61362305 -234.95117188 196.67773438 C-242.65880367 196.78629257 -247.73165143 195.81588312 -253.984375 191.23828125 C-255.27214844 190.30435547 -255.27214844 190.30435547 -256.5859375 189.3515625 C-269.34684974 177.99484331 -277.23221341 162.19483855 -278.3046875 145.04296875 C-279.75189585 106.29228247 -252.82287402 68.270623 -227.59765625 40.984375 C-226.30408203 39.62505859 -226.30408203 39.62505859 -224.984375 38.23828125 C-224.43185059 37.65320801 -223.87932617 37.06813477 -223.31005859 36.46533203 C-188.74967884 0.09416763 -188.74967884 0.09416763 -169.3828125 -0.89453125 C-168.38507813 -0.89195313 -167.38734375 -0.889375 -166.359375 -0.88671875 C-165.37710938 -0.88929687 -164.39484375 -0.891875 -163.3828125 -0.89453125 C-159.984375 -0.76171875 -159.984375 -0.76171875 -157.88232422 -0.40283203 C-151.63899906 0.63569642 -147.92519736 -0.5437937 -142.359375 -3.38671875 C-140.78111196 -4.1380152 -139.20033518 -4.88405195 -137.6171875 -5.625 C-136.83762695 -5.99189941 -136.05806641 -6.35879883 -135.25488281 -6.73681641 C-125.31322066 -11.22446132 -114.68695464 -13.84840842 -103.984375 -15.76171875 C-102.86160156 -15.96796875 -101.73882812 -16.17421875 -100.58203125 -16.38671875 C-66.13481249 -21.86782317 -31.47045646 -14.02221738 0 0 Z M-138.171875 8.80078125 C-138.87940918 9.16453857 -139.58694336 9.5282959 -140.31591797 9.90307617 C-152.54291708 16.4826471 -156.10334316 27.86949922 -160.484375 40.36328125 C-160.905979 41.5555835 -161.32758301 42.74788574 -161.76196289 43.97631836 C-168.84557627 64.13953809 -175.35790677 84.51722668 -181.6953125 104.92578125 C-181.91119019 105.61994141 -182.12706787 106.31410156 -182.3494873 107.02929688 C-183.21495149 109.81331208 -184.0803968 112.59729925 -184.93786621 115.38378906 C-187.82274168 124.74861402 -190.93460834 134.00834128 -194.2265625 143.23828125 C-194.96872087 145.33962898 -195.71050061 147.44111049 -196.4519043 149.54272461 C-197.88912213 153.6152557 -199.36155622 157.67256368 -200.85473633 161.72485352 C-208.87921063 184.08485076 -206.96119919 203.62182884 -196.984375 225.23828125 C-188.57698128 241.71756237 -175.75271213 256.44353196 -159.984375 266.23828125 C-159.06140625 266.83253906 -158.1384375 267.42679687 -157.1875 268.0390625 C-137.28718087 280.3319845 -111.31095707 286.37263222 -87.98828125 286.40625 C-87.15586411 286.4095784 -86.32344696 286.4129068 -85.46580505 286.41633606 C-83.71199082 286.42136601 -81.95816714 286.42374561 -80.2043457 286.42358398 C-77.58462764 286.42575004 -74.96534586 286.44389161 -72.34570312 286.46289062 C-56.76026422 286.51792876 -41.67846985 285.66824924 -26.734375 280.92578125 C-25.71279297 280.61165283 -24.69121094 280.29752441 -23.63867188 279.97387695 C-21.63734103 279.35298788 -19.63847155 278.72408938 -17.64257812 278.0859375 C-15.40347997 277.37192677 -13.15874297 276.68950352 -10.90625 276.01953125 C12.29318085 268.60418806 32.64630872 250.68321926 43.97509766 229.32421875 C52.26567597 212.70415747 58.92159191 192.43260633 53.828125 173.86328125 C52.67803352 170.73141337 51.31384501 167.84188969 49.7421875 164.90234375 C46.35439935 158.17362312 43.98373151 151.10896474 41.578125 143.98828125 C41.32606293 143.249729 41.07400085 142.51117676 40.81430054 141.75024414 C35.51472676 126.20060392 30.7667417 110.48860238 26.02661133 94.76147461 C19.76032414 73.98172812 13.0150487 53.45318783 5.28808594 33.16333008 C3.59249174 28.68304848 1.96356469 24.3563813 0.98828125 19.66015625 C0.31354106 16.24482728 0.31354106 16.24482728 -1.8046875 14.390625 C-2.56523437 13.98972656 -3.32578125 13.58882812 -4.109375 13.17578125 C-5.00785156 12.70140625 -5.90632812 12.22703125 -6.83203125 11.73828125 C-7.87230469 11.24328125 -8.91257812 10.74828125 -9.984375 10.23828125 C-10.85618408 9.81482422 -10.85618408 9.81482422 -11.74560547 9.3828125 C-29.45337222 0.8659764 -49.28637462 -4.95090517 -68.984375 -5.76171875 C-69.69239258 -5.79426758 -70.40041016 -5.82681641 -71.12988281 -5.86035156 C-95.21998032 -6.833391 -116.82268845 -2.21261533 -138.171875 8.80078125 Z " fill="#322318" transform="translate(329.984375,106.76171875)"/>
<path d="M0 0 C1.45089842 -0.00645814 2.90179566 -0.01318848 4.35269165 -0.02017212 C7.37985233 -0.03205651 10.40689973 -0.03586264 13.43408203 -0.03466797 C16.48640863 -0.03450626 19.53812965 -0.04827352 22.59033203 -0.07568359 C85.88636123 -0.63534637 144.56683359 22.40109233 191.359375 65.2578125 C193.27159332 66.98205004 195.21929013 68.60141956 197.2265625 70.2109375 C201.18466452 73.55146331 204.26351527 77.59336386 207.453125 81.65234375 C209.7157189 84.39863705 212.14634672 86.82182876 214.6640625 89.3359375 C220.11156468 95.16066271 224.99222827 101.22477033 229.5390625 107.7734375 C230.14274658 108.64250732 230.74643066 109.51157715 231.3684082 110.40698242 C237.07765568 118.74986763 242.0704436 127.336563 246.6640625 136.3359375 C247.33864502 137.64836426 247.33864502 137.64836426 248.02685547 138.98730469 C266.30366335 174.88479755 275.45173365 212.19705337 275.18554688 252.48339844 C275.16407708 256.33332253 275.18549999 260.1813813 275.2109375 264.03125 C275.27750672 322.77437188 252.29938657 382.64792181 212.6640625 426.3359375 C210.6640625 428.00260417 208.6640625 429.66927083 206.6640625 431.3359375 C205.2237585 433.06653533 203.80985092 434.81924026 202.4140625 436.5859375 C197.9449629 442.14632887 193.13084524 446.76894334 187.6640625 451.3359375 C187.14666504 451.77486328 186.62926758 452.21378906 186.09619141 452.66601562 C170.0269348 466.2387563 152.33318242 477.68163018 133.6640625 487.3359375 C132.94138184 487.71556641 132.21870117 488.09519531 131.47412109 488.48632812 C102.28674891 503.66505457 68.84315817 512.66055065 35.90234375 512.63671875 C34.53679785 512.64062757 33.17125312 512.6449665 31.80570984 512.64970398 C28.96621738 512.657087 26.1268494 512.65693444 23.28735352 512.65161133 C20.42228467 512.64698698 17.55764099 512.65388314 14.69262695 512.67211914 C-1.51224386 512.77424504 -17.3986785 512.63567425 -33.3359375 509.3359375 C-34.47506592 509.10624268 -35.61419434 508.87654785 -36.7878418 508.63989258 C-39.65698949 508.01550537 -42.49469678 507.32620167 -45.3359375 506.5859375 C-46.33955322 506.32699707 -47.34316895 506.06805664 -48.37719727 505.80126953 C-87.81484256 495.36730407 -123.98613098 474.93202198 -154.03125 447.4140625 C-155.94346832 445.68982496 -157.89116513 444.07045544 -159.8984375 442.4609375 C-163.85653952 439.12041169 -166.93539027 435.07851114 -170.125 431.01953125 C-172.3875939 428.27323795 -174.81822172 425.85004624 -177.3359375 423.3359375 C-182.78343968 417.51121229 -187.66410327 411.44710467 -192.2109375 404.8984375 C-192.81462158 404.02936768 -193.41830566 403.16029785 -194.0402832 402.26489258 C-199.74953068 393.92200737 -204.7423186 385.335312 -209.3359375 376.3359375 C-210.01052002 375.02351074 -210.01052002 375.02351074 -210.69873047 373.68457031 C-228.97553835 337.78707745 -238.12360865 300.47482163 -237.85742188 260.18847656 C-237.83595208 256.33855247 -237.85737499 252.4904937 -237.8828125 248.640625 C-237.94938172 189.89750312 -214.97126157 130.02395319 -175.3359375 86.3359375 C-173.3359375 84.66927083 -171.3359375 83.00260417 -169.3359375 81.3359375 C-167.8956335 79.60533967 -166.48172592 77.85263474 -165.0859375 76.0859375 C-160.6168379 70.52554613 -155.80272024 65.90293166 -150.3359375 61.3359375 C-149.55984131 60.67754883 -149.55984131 60.67754883 -148.76806641 60.00585938 C-132.6988098 46.4331187 -115.00505742 34.99024482 -96.3359375 25.3359375 C-95.61325684 24.95630859 -94.89057617 24.57667969 -94.14599609 24.18554688 C-65.5288424 9.30335931 -32.31158751 0.03457707 0 0 Z M-18.3359375 10.3359375 C-19.70661377 10.5539502 -19.70661377 10.5539502 -21.10498047 10.77636719 C-80.47471137 20.53337397 -137.62967321 53.58162232 -173.15771484 102.70898438 C-174.34993877 104.3552712 -175.56907172 105.97872629 -176.79296875 107.6015625 C-186.68456808 120.89412871 -196.3641395 135.59908655 -202.2734375 151.1484375 C-203.59288706 154.54934432 -205.04492245 157.81078422 -206.6484375 161.0859375 C-232.82373977 218.65554403 -230.63071694 287.88236388 -208.765625 346.234375 C-191.43009581 390.79289173 -161.7924158 429.03040779 -123.3359375 457.3359375 C-121.93601563 458.39554687 -121.93601563 458.39554687 -120.5078125 459.4765625 C-115.29982485 463.37511326 -110.06696506 466.78279709 -104.296875 469.7890625 C-102.23923102 470.86403218 -100.20375994 471.98209343 -98.1875 473.1328125 C-60.7657584 494.15626284 -17.96052535 503.27134783 24.6640625 502.3359375 C25.44152832 502.32723633 26.21899414 502.31853516 27.02001953 502.30957031 C91.99464341 501.48871904 152.14613489 469.17129858 197.08129883 423.97900391 C204.33092971 416.45316466 210.55351858 407.79110438 216.6640625 399.3359375 C217.43363281 398.27503906 218.20320313 397.21414063 218.99609375 396.12109375 C236.25104925 371.65049352 246.91179248 344.03641692 254.6640625 315.3359375 C254.99277344 314.15902344 255.32148438 312.98210937 255.66015625 311.76953125 C256.46532987 308.63644632 257.09446375 305.52067519 257.6640625 302.3359375 C257.79796387 301.62421387 257.93186523 300.91249023 258.06982422 300.17919922 C263.39830464 270.59983939 263.0874817 237.67041872 256.6640625 208.3359375 C256.37523193 206.95341797 256.37523193 206.95341797 256.08056641 205.54296875 C252.82825732 190.13186002 248.90956826 174.31921589 241.98828125 160.10546875 C240.68889709 157.3878777 239.53259033 154.62875936 238.38134766 151.84594727 C231.82112636 136.19078727 222.90639494 121.83143735 212.6640625 108.3359375 C212.24189453 107.77100586 211.81972656 107.20607422 211.38476562 106.62402344 C204.11174289 96.91754573 196.08172652 88.05767127 187.6640625 79.3359375 C186.76429688 78.39492187 185.86453125 77.45390625 184.9375 76.484375 C179.20803463 70.6093994 173.10502981 65.41169978 166.6640625 60.3359375 C165.7359375 59.56765625 164.8078125 58.799375 163.8515625 58.0078125 C149.32108109 46.27747594 132.56817279 37.18047953 115.6640625 29.3359375 C114.55675781 28.81773438 113.44945312 28.29953125 112.30859375 27.765625 C72.07745675 9.74886728 25.30592989 3.12639761 -18.3359375 10.3359375 Z " fill="#BCE7F4" transform="translate(237.3359375,-0.3359375)"/>
<path d="M0 0 C23.64256564 2.39721832 43.89636408 25.69152827 58.0625 42.875 C59.38072571 44.57891901 60.69307925 46.28739462 62 48 C62.85734054 49.04831053 63.71825253 50.09370673 64.58203125 51.13671875 C81.18348576 71.35343172 100.96293575 100.91427613 100.5625 127.75 C100.54606445 129.32044067 100.54606445 129.32044067 100.52929688 130.92260742 C100.15778582 144.3104211 96.48378482 156.13420633 87 166 C81.76346945 170.40519919 76.47120361 173.12836211 69.51171875 172.63671875 C61.3878087 170.57731387 55.88005627 164.46143416 51.51171875 157.62890625 C41.81718626 140.76993889 37.27861811 120.85671268 32.0038147 102.27548218 C25.86815499 80.68734399 25.86815499 80.68734399 18.27319336 59.58398438 C14.2090295 49.30744221 11.04623228 38.74408486 7.80395508 28.1862793 C7.36290156 26.75305902 6.92174198 25.31987139 6.48046875 23.88671875 C6.26967178 23.19889816 6.05887482 22.51107758 5.84169006 21.80241394 C4.32032646 16.88909809 2.60001232 12.08366632 0.69262695 7.30786133 C-0.06976912 4.76752642 -0.12547016 2.63779809 0 0 Z " fill="#824725" transform="translate(344,119)"/>
<path d="M0 0 C0.30265158 5.45514216 -0.55042317 9.13890648 -2.7109375 14.13671875 C-2.99452118 14.80478546 -3.27810486 15.47285217 -3.57028198 16.16116333 C-4.17902211 17.59421109 -4.79283174 19.0251142 -5.41125488 20.45401001 C-7.06026205 24.2756024 -8.65734315 28.11882244 -10.2578125 31.9609375 C-10.58060181 32.73417862 -10.90339111 33.50741974 -11.23596191 34.30409241 C-19.21113511 53.47296911 -25.3536534 72.95126695 -30.51464844 93.03833008 C-32.6151035 101.17558438 -34.93539448 109.06700837 -37.88183594 116.94677734 C-39.00798923 120.02181513 -39.99218388 123.11513228 -40.9375 126.25 C-52.00675567 162.6140608 -52.00675567 162.6140608 -65.00390625 170.1640625 C-69.55225869 172.06885198 -73.95276856 171.31790954 -78.5 169.9375 C-88.32644307 165.10262141 -94.30333864 156.32695181 -97.8125 146.1875 C-104.45592267 124.72723163 -98.10611598 103.93500857 -88.11645508 84.68115234 C-87.09425802 82.77775093 -86.0514714 80.88736917 -85 79 C-84.65211426 78.36368652 -84.30422852 77.72737305 -83.94580078 77.07177734 C-79.01860044 68.13516639 -73.37695372 60.45335514 -66.58691406 52.84155273 C-64.60573726 50.54247326 -62.72504432 48.16982739 -60.828125 45.80078125 C-55.96447922 39.83553184 -50.70584099 34.36047448 -45.25 28.9375 C-44.7685553 28.45787811 -44.2871106 27.97825623 -43.79107666 27.48410034 C-15.77831705 -0.35062927 -15.77831705 -0.35062927 0 0 Z " fill="#824725" transform="translate(166,120)"/>
<path d="M0 0 C0.25394531 0.61488281 0.50789062 1.22976563 0.76953125 1.86328125 C1.11371094 2.67152344 1.45789063 3.47976563 1.8125 4.3125 C2.14894531 5.11300781 2.48539063 5.91351563 2.83203125 6.73828125 C5.04519207 11.02396725 7.48502593 12.45917233 12 14 C16.07482097 14.43528159 20.15414525 14.37024291 24.25 14.375 C25.34441406 14.39949219 26.43882812 14.42398437 27.56640625 14.44921875 C34.65826059 14.47469847 39.81338452 13.46553149 46 10 C46.75506836 9.5963623 47.51013672 9.19272461 48.28808594 8.77685547 C49.59073875 8.07588624 50.8872734 7.36336154 52.17578125 6.63671875 C56.4837691 5.13307417 60.71289602 8.17811689 64.5625 10 C71.79256652 13.41397011 76.7876022 14.18234677 84.6875 14.1875 C85.65623047 14.19974609 86.62496094 14.21199219 87.62304688 14.22460938 C94.51314964 14.23858524 100.76284061 13.94229563 106.8125 10.3125 C109.58979783 7.37649944 110.61791083 4.78255982 112 1 C115.49186021 0.79854653 118.19917389 0.65092195 121.4375 2.0625 C123 4 123 4 123.625 7.1875 C122.77003327 12.40279702 120.60665078 15.23099195 117 19 C115.51696095 20.02564853 114.0201729 21.03164167 112.51171875 22.01953125 C106.92234296 26.29767831 105.78333537 31.02996335 104.25 37.6875 C103.68536696 39.84229762 103.11640463 41.99596578 102.54296875 44.1484375 C102.27919434 45.16776367 102.01541992 46.18708984 101.74365234 47.23730469 C97.81251206 61.84163282 90.07920286 73.17377414 77 81 C66.8966174 86.32385864 57.29853895 88.8998057 46 85.875 C33.22449572 81.61649857 23.33460476 73.13489186 17.08837891 61.26806641 C12.90343606 52.81981099 9.93042557 44.22550251 7.86083984 35.02734375 C6.65150596 30.04151327 5.08752317 27.3632317 1 24 C0.030625 23.443125 -0.93875 22.88625 -1.9375 22.3125 C-6.32278448 19.00116274 -8.86572578 15.04464815 -11 10 C-11.12889451 5.93982302 -10.9760337 4.12063129 -8.3125 1.0625 C-5.40913094 -0.27148038 -3.15869424 -0.21536552 0 0 Z " fill="#322217" transform="translate(198,284)"/>
<path d="M0 0 C2.24354133 0.03441089 4.48315374 0.02060272 6.72680664 0.0012207 C8.17148464 0.00811857 9.61615261 0.01779044 11.06079102 0.03051758 C12.35573486 0.04139404 13.65067871 0.05227051 14.98486328 0.06347656 C20.20455282 0.81663126 23.96173483 2.78082927 27.64282227 6.66723633 C28.10946289 7.3452832 28.57610352 8.02333008 29.05688477 8.72192383 C29.53899414 9.40512695 30.02110352 10.08833008 30.51782227 10.79223633 C33.35385886 15.18904474 33.31281535 19.59855646 32.25610352 24.62036133 C29.50668842 33.15535543 23.81522434 38.48698743 15.99438477 42.59692383 C9.50700648 45.71742403 3.8032912 47.15839824 -3.31811523 45.59692383 C-13.37189037 42.06451635 -20.38072083 37.15786235 -25.39624023 27.52661133 C-27.34164228 23.01681567 -28.30017769 18.46002158 -27.31811523 13.59692383 C-25.17817202 8.25697294 -21.95574134 4.56299793 -17.02954102 1.61572266 C-11.59084662 -0.42782783 -5.73727598 -0.09751922 0 0 Z " fill="#322217" transform="translate(251.318115234375,237.403076171875)"/>
<path d="M0 0 C2.56400777 2.56400777 2.32633634 3.68782015 2.375 7.25 C2.27560578 12.31910506 1.48123606 15.1424141 -2 19 C-5.76040615 22.35297316 -9.47847971 24.26871402 -14.125 26.1875 C-14.74503906 26.44724609 -15.36507812 26.70699219 -16.00390625 26.97460938 C-22.60858608 29.7230084 -27.54670208 31.25539781 -34.53515625 28.71484375 C-42.634991 24.63353167 -48.88529023 21.28677444 -52.375 12.5625 C-53.07424769 8.57678815 -53.14169347 5.03826379 -53 1 C-51.14801206 0.20324985 -49.2932889 -0.58714361 -47.4375 -1.375 C-46.40496094 -1.81585938 -45.37242187 -2.25671875 -44.30859375 -2.7109375 C-28.66602526 -8.8054447 -15.01585386 -6.34148752 0 0 Z " fill="#FB8993" transform="translate(280,329)"/>
<path d="M0 0 C6.5348705 4.69949543 8.76213395 10.44419419 11 18 C11.495 19.485 11.495 19.485 12 21 C12.51976132 26.02719969 12.77635718 29.78694191 10 34.125 C9.34 34.74375 8.68 35.3625 8 36 C5.47434103 35.65869473 3.52431738 35.37117517 1.421875 33.8828125 C-0.63546638 31.15853078 -0.86407491 28.53188606 -1.4375 25.1875 C-2.88103934 17.96236239 -4.20689443 14.53328179 -9.6875 9.5625 C-14.10216059 7.48011293 -17.38560545 7.40500595 -22 9 C-27.09605958 13.54214006 -28.82189683 18.99054391 -30.70703125 25.40625 C-32.55592105 31.49671053 -32.55592105 31.49671053 -34.875 34.125 C-37.6953572 35.28632355 -39.15850345 35.04686715 -42 34 C-45.26865149 29.09702276 -44.54576433 23.73052542 -44 18 C-43.06029455 14.7207186 -41.71705932 11.93754748 -40 9 C-39.443125 7.96875 -38.88625 6.9375 -38.3125 5.875 C-27.36354537 -7.73721386 -14.32385867 -8.86621238 0 0 Z " fill="#322317" transform="translate(329,200)"/>
<path d="M0 0 C6.68286674 6.86850193 10.51165565 14.25789263 10.625 23.9375 C10.65335938 25.04351562 10.68171875 26.14953125 10.7109375 27.2890625 C10.15348741 30.94555717 9.1765483 32.11892632 6.25 34.3125 C3.6875 34.3125 3.6875 34.3125 1.25 33.3125 C-1.57818744 30.24391663 -2.35951463 27.47971429 -3.1875 23.4375 C-4.63361768 17.3175896 -6.13713647 13.09399786 -11.5 9.4375 C-15.75350203 7.96513391 -18.25121214 7.74122535 -22.75 8.3125 C-27.23694913 11.57573573 -29.93852775 16.1196129 -31.75 21.3125 C-31.94496651 22.86963252 -32.09107065 24.43367468 -32.1875 26 C-32.4540135 29.57623934 -32.76300602 30.33056391 -35 33.4375 C-37.75 35.3125 -37.75 35.3125 -40.4375 35.3125 C-42.75 34.3125 -42.75 34.3125 -44.75 31.3125 C-45.80836992 20.49513472 -44.54825006 11.99915286 -37.75 3.3125 C-26.7202566 -8.1955741 -13.20908653 -8.10557582 0 0 Z " fill="#322216" transform="translate(211.75,199.6875)"/>
<path d="M0 0 C4.80034353 2.23784131 9.77220495 4.99748301 11.859375 10.1015625 C12.12151437 13.87345681 11.04891191 16.36610973 8.75 19.3125 C4.05540709 23.90039762 1.81634218 25.44233646 -4.9375 25.5 C-11.49971973 25.35734305 -11.49971973 25.35734305 -15.0625 22.8125 C-15.701875 21.884375 -16.34125 20.95625 -17 20 C-17.886875 19.113125 -18.77375 18.22625 -19.6875 17.3125 C-21.125 15.875 -22.5625 14.4375 -24 13 C-23.80853346 10.26315478 -23.14386407 9.15289589 -21.2578125 7.1484375 C-20.20207031 6.27058594 -20.20207031 6.27058594 -19.125 5.375 C-18.07699219 4.48941406 -18.07699219 4.48941406 -17.0078125 3.5859375 C-11.46336486 -0.79352892 -6.91078344 -1.19546728 0 0 Z " fill="#FEC5AA" transform="translate(354,266)"/>
<path d="M0 0 C4.30911862 2.6517653 7.15606391 6.04089029 10.25 10 C8.88560848 15.15436796 5.52426385 18.06648401 1.25 21 C0.59 21 -0.07 21 -0.75 21 C-0.75 21.66 -0.75 22.32 -0.75 23 C-5.586951 24.54782432 -10.09198151 24.67674224 -14.8125 22.75 C-23.4469697 17.60606061 -23.4469697 17.60606061 -24.75 15 C-25.32426836 7.99392601 -25.32426836 7.99392601 -23.125 4.1875 C-16.29745119 -2.1010318 -8.69025183 -2.31740049 0 0 Z " fill="#FEC6AA" transform="translate(169.75,269)"/>
<path d="M0 0 C-0.33 0.66 -0.66 1.32 -1 2 C-6.25530593 3.34751434 -11.61579398 3.09576651 -17 3 C-17 2.34 -17 1.68 -17 1 C-11.29014022 0.25983299 -5.75813575 -0.10469338 0 0 Z " fill="#3E3227" transform="translate(290,391)"/>
<path d="M0 0 C0.33 0 0.66 0 1 0 C0.58846263 4.97093824 0.20399168 9.44508386 -2 14 C-3.1171875 12.328125 -3.1171875 12.328125 -4 10 C-3.3203125 7.421875 -3.3203125 7.421875 -2.125 4.75 C-1.73570312 3.85796875 -1.34640625 2.9659375 -0.9453125 2.046875 C-0.63335937 1.37140625 -0.32140625 0.6959375 0 0 Z " fill="#3D332D" transform="translate(392,319)"/>
<path d="M0 0 C4.1666604 0.47348414 6.92884715 1.04696841 10 4 C10 4.66 10 5.32 10 6 C6.51329166 4.8905928 3.22515763 3.73662334 0 2 C0 1.34 0 0.68 0 0 Z " fill="#45392D" transform="translate(314,113)"/>
<path d="M0 0 C6.15234375 -0.09765625 6.15234375 -0.09765625 8 0 C9 1 9 1 9.0625 3.5625 C9.041875 4.366875 9.02125 5.17125 9 6 C8.34 6 7.68 6 7 6 C7 4.68 7 3.36 7 2 C5.02 2 3.04 2 1 2 C0.67 1.34 0.34 0.68 0 0 Z " fill="#413631" transform="translate(104,301)"/>
<path d="M0 0 C0.99 0.33 1.98 0.66 3 1 C3.80078125 2.77734375 3.80078125 2.77734375 4.3125 4.9375 C4.49425781 5.64777344 4.67601563 6.35804688 4.86328125 7.08984375 C4.93095703 8.03537109 4.93095703 8.03537109 5 9 C4.34 9.66 3.68 10.32 3 11 C2.49384702 9.73160474 1.99530901 8.46016898 1.5 7.1875 C1.2215625 6.47980469 0.943125 5.77210938 0.65625 5.04296875 C0 3 0 3 0 0 Z " fill="#483E38" transform="translate(114,317)"/>
<path d="M0 0 C1.17539996 0.92652701 2.34010577 1.86663387 3.5 2.8125 C4.1496875 3.33457031 4.799375 3.85664063 5.46875 4.39453125 C7 6 7 6 7 9 C5.82460004 8.07347299 4.65989423 7.13336613 3.5 6.1875 C2.52546875 5.40439453 2.52546875 5.40439453 1.53125 4.60546875 C0 3 0 3 0 0 Z " fill="#3A302A" transform="translate(139,361)"/>
<path d="M0 0 C0.99 0.33 1.98 0.66 3 1 C-1.75 6.75 -1.75 6.75 -4 9 C-4.33 8.34 -4.66 7.68 -5 7 C-3.35 4.69 -1.7 2.38 0 0 Z " fill="#3C2F24" transform="translate(304,208)"/>
<path d="M0 0 C0.88492145 2.47778006 1.11637742 3.66056586 0.25 6.1875 C-1 8 -1 8 -4 9 C-2.94124926 5.59687262 -1.99097846 2.98646769 0 0 Z " fill="#CDC5AD" transform="translate(179,125)"/>
<path d="M0 0 C3.68754757 0.49831724 5.60490662 1.10067643 8 4 C7.01 4.495 7.01 4.495 6 5 C3.96855359 4.06553465 1.96466413 3.06775224 0 2 C0 1.34 0 0.68 0 0 Z " fill="#4F4640" transform="translate(177,390)"/>
<path d="M0 0 C2.29633824 3.44450737 2.54016485 5.93812283 3 10 C0.51280729 7.08025204 -0.58572305 4.83206182 -1 1 C-0.67 0.67 -0.34 0.34 0 0 Z " fill="#3C332F" transform="translate(119,327)"/>
<path d="M0 0 C0.66 0.99 1.32 1.98 2 3 C0.35 3.66 -1.3 4.32 -3 5 C-3 4.01 -3 3.02 -3 2 C-2.01 1.34 -1.02 0.68 0 0 Z M2 1 C4 2 4 2 4 2 Z " fill="#413225" transform="translate(192,284)"/>
<path d="M0 0 C2 2 2 2 2.125 5.625 C2.08375 6.73875 2.0425 7.8525 2 9 C0.4375 7.3125 0.4375 7.3125 -1 5 C-0.6875 2.25 -0.6875 2.25 0 0 Z " fill="#281B11" transform="translate(375,256)"/>
</svg>
